# xmcd
#
# Track frame offsets:
#	150
#	10790
#	24758
#	39770
#	55768
#	71298
#	86853
#	105613
#	125290
#	136648
#	152288
#	166858
#	178853
#	191603
#	207570
#	221415
#	244465
#
# Disc length: 3506 seconds
#
# Revision: 8
# Processed by: cddbd v1.5.2PL0 Copyright (c) Steve Scherf et al.
# Submitted via: audiograbber 1.83.01
#
DISCID=d50db011
DTITLE=Various Artist - Motown Milestones - Motown Meets The Beatles
DYEAR=1995
DGENRE=Oldies
TTITLE0=Supremes - A Hard Day's Night
TTITLE1=Four Tops - Eleanor Rigby
TTITLE2=Stevie Wonder - We Can Work It Out
TTITLE3=Temptations - Hey Jude
TTITLE4=Marvin Gaye - Yesterday
TTITLE5=Diana Ross - Long And Winding Road
TTITLE6=Supremes - Come Together
TTITLE7=Syreeta - She's Leaving Home
TTITLE8=Supremes - You Can't Do That
TTITLE9=Four Tops - Fool On The Hill
TTITLE10=Four Tops - Michelle
TTITLE11=Smokey Robinson and The Miracles - And I Love Her
TTITLE12=Martha Reeves and The Vandellas - Something
TTITLE13=Gladys Knight and The Pips - Let It Be
TTITLE14=Diana Ross - Imagine
TTITLE15=Jr. Walker - My Love
TTITLE16=Edwin Starr - My Sweet Lord
EXTD=
EXTT0=
EXTT1=
EXTT2=
EXTT3=
EXTT4=
EXTT5=
EXTT6=
EXTT7=
EXTT8=
EXTT9=
EXTT10=
EXTT11=
EXTT12=
EXTT13=
EXTT14=
EXTT15=
EXTT16=
PLAYORDER=
